HIERARCHY
ROOT Hips
{
	OFFSET -14.64140 90.27770 -84.91600
	CHANNELS 6 Xposition Yposition Zposition Zrotation Xrotation Yrotation
	JOINT Spine
	{
		OFFSET 0.00000 13.20850 -1.60436
		CHANNELS 3 Zrotation Xrotation Yrotation
		JOINT Spine1
		{
			OFFSET 0.00000 8.61716 0.00000
			CHANNELS 3 Zrotation Xrotation Yrotation
			JOINT Spine2
			{
				OFFSET 0.00000 8.61717 0.00000
				CHANNELS 3 Zrotation Xrotation Yrotation
				JOINT Spine3
				{
					OFFSET 0.00000 8.61717 0.00000
					CHANNELS 3 Zrotation Xrotation Yrotation
					JOINT Neck
					{
						OFFSET 0.00000 11.07920 1.10792
						CHANNELS 3 Zrotation Xrotation Yrotation
						JOINT Neck1
						{
							OFFSET 0.00000 7.08032 0.00000
							CHANNELS 3 Zrotation Xrotation Yrotation
							JOINT Head
							{
								OFFSET 0.00000 7.08031 0.00000
								CHANNELS 3 Zrotation Xrotation Yrotation
								End site
								{
									OFFSET 0.00000 0.00000 0.00000
								}
							}
						}
					}
					JOINT RightShoulder
					{
						OFFSET -0.01000 7.91373 5.19711
						CHANNELS 3 Zrotation Xrotation Yrotation
						JOINT RightArm
						{
							OFFSET -18.41580 0.00000 0.00000
							CHANNELS 3 Zrotation Xrotation Yrotation
							JOINT RightForeArm
							{
								OFFSET -29.11090 0.00000 0.00000
								CHANNELS 3 Zrotation Xrotation Yrotation
								JOINT RightHand
								{
									OFFSET -24.65040 0.00000 0.00000
									CHANNELS 3 Zrotation Xrotation Yrotation
									JOINT RightHandThumb1
									{
										OFFSET -5.35114 -0.85590 3.97906
										CHANNELS 3 Zrotation Xrotation Yrotation
										JOINT RightHandThumb2
										{
											OFFSET -4.52789 0.00000 0.00000
											CHANNELS 3 Zrotation Xrotation Yrotation
											JOINT RightHandThumb3
											{
												OFFSET -2.46976 0.00000 0.00000
												CHANNELS 3 Zrotation Xrotation Yrotation
												End site
												{
													OFFSET 0.00000 0.00000 0.00000
												}
											}
										}
									}
									JOINT RightHandIndex1
									{
										OFFSET -14.26970 0.00000 2.88139
										CHANNELS 3 Zrotation Xrotation Yrotation
										JOINT RightHandIndex2
										{
											OFFSET -5.48836 0.00000 0.00000
											CHANNELS 3 Zrotation Xrotation Yrotation
											JOINT RightHandIndex3
											{
												OFFSET -3.01859 0.00000 0.00000
												CHANNELS 3 Zrotation Xrotation Yrotation
												End site
												{
													OFFSET 0.00000 0.00000 0.00000
												}
											}
										}
									}
									JOINT RightHandMiddle1
									{
										OFFSET -14.26970 0.00000 -0.09147
										CHANNELS 3 Zrotation Xrotation Yrotation
										JOINT RightHandMiddle2
										{
											OFFSET -6.17441 0.00000 0.00000
											CHANNELS 3 Zrotation Xrotation Yrotation
											JOINT RightHandMiddle3
											{
												OFFSET -3.56743 0.00000 0.00000
												CHANNELS 3 Zrotation Xrotation Yrotation
												End site
												{
													OFFSET 0.00000 0.00000 0.00000
												}
											}
										}
									}
									JOINT RightHandRing1
									{
										OFFSET -12.69180 0.00000 -3.06433
										CHANNELS 3 Zrotation Xrotation Yrotation
										JOINT RightHandRing2
										{
											OFFSET -5.62556 0.00000 0.00000
											CHANNELS 3 Zrotation Xrotation Yrotation
											JOINT RightHandRing3
											{
												OFFSET -3.56744 0.00000 0.00000
												CHANNELS 3 Zrotation Xrotation Yrotation
												End site
												{
													OFFSET 0.00000 0.00000 0.00000
												}
											}
										}
									}
									JOINT RightHandPinky1
									{
										OFFSET -11.11390 0.00000 -6.03719
										CHANNELS 3 Zrotation Xrotation Yrotation
										JOINT RightHandPinky2
										{
											OFFSET -4.52789 0.00000 0.00000
											CHANNELS 3 Zrotation Xrotation Yrotation
											JOINT RightHandPinky3
											{
												OFFSET -2.46976 0.00000 0.00000
												CHANNELS 3 Zrotation Xrotation Yrotation
												End site
												{
													OFFSET 0.00000 0.00000 0.00000
												}
											}
										}
									}
								}
							}
						}
					}
					JOINT LeftShoulder
					{
						OFFSET 0.01000 7.91373 5.19711
						CHANNELS 3 Zrotation Xrotation Yrotation
						JOINT LeftArm
						{
							OFFSET 18.41580 0.00000 0.00000
							CHANNELS 3 Zrotation Xrotation Yrotation
							JOINT LeftForeArm
							{
								OFFSET 29.11090 0.00000 0.00000
								CHANNELS 3 Zrotation Xrotation Yrotation
								JOINT LeftHand
								{
									OFFSET 24.65040 0.00000 0.00000
									CHANNELS 3 Zrotation Xrotation Yrotation
									JOINT LeftHandThumb1
									{
										OFFSET 5.35114 -0.85590 3.97906
										CHANNELS 3 Zrotation Xrotation Yrotation
										JOINT LeftHandThumb2
										{
											OFFSET 4.52789 0.00000 0.00000
											CHANNELS 3 Zrotation Xrotation Yrotation
											JOINT LeftHandThumb3
											{
												OFFSET 2.46977 0.00000 0.00000
												CHANNELS 3 Zrotation Xrotation Yrotation
												End site
												{
													OFFSET 0.00000 0.00000 0.00000
												}
											}
										}
									}
									JOINT LeftHandIndex1
									{
										OFFSET 14.26970 0.00000 2.88139
										CHANNELS 3 Zrotation Xrotation Yrotation
										JOINT LeftHandIndex2
										{
											OFFSET 5.48836 0.00000 0.00000
											CHANNELS 3 Zrotation Xrotation Yrotation
											JOINT LeftHandIndex3
											{
												OFFSET 3.01859 0.00000 0.00000
												CHANNELS 3 Zrotation Xrotation Yrotation
												End site
												{
													OFFSET 0.00000 0.00000 0.00000
												}
											}
										}
									}
									JOINT LeftHandMiddle1
									{
										OFFSET 14.26970 0.00000 -0.09147
										CHANNELS 3 Zrotation Xrotation Yrotation
										JOINT LeftHandMiddle2
										{
											OFFSET 6.17440 0.00000 0.00000
											CHANNELS 3 Zrotation Xrotation Yrotation
											JOINT LeftHandMiddle3
											{
												OFFSET 3.56744 0.00000 0.00000
												CHANNELS 3 Zrotation Xrotation Yrotation
												End site
												{
													OFFSET 0.00000 0.00000 0.00000
												}
											}
										}
									}
									JOINT LeftHandRing1
									{
										OFFSET 12.69180 0.00000 -3.06433
										CHANNELS 3 Zrotation Xrotation Yrotation
										JOINT LeftHandRing2
										{
											OFFSET 5.62556 0.00000 0.00000
											CHANNELS 3 Zrotation Xrotation Yrotation
											JOINT LeftHandRing3
											{
												OFFSET 3.56744 0.00000 0.00000
												CHANNELS 3 Zrotation Xrotation Yrotation
												End site
												{
													OFFSET 0.00000 0.00000 0.00000
												}
											}
										}
									}
									JOINT LeftHandPinky1
									{
										OFFSET 11.11390 0.00000 -6.03719
										CHANNELS 3 Zrotation Xrotation Yrotation
										JOINT LeftHandPinky2
										{
											OFFSET 4.52789 0.00000 0.00000
											CHANNELS 3 Zrotation Xrotation Yrotation
											JOINT LeftHandPinky3
											{
												OFFSET 2.46976 0.00000 0.00000
												CHANNELS 3 Zrotation Xrotation Yrotation
												End site
												{
													OFFSET 0.00000 0.00000 0.00000
												}
											}
										}
									}
								}
							}
						}
					}
					JOINT pCube4
					{
						OFFSET 0.00000 10.91090 1.10792
						CHANNELS 3 Zrotation Xrotation Yrotation
						End site
						{
							OFFSET 0.00000 0.00000 0.00000
						}
					}
				}
			}
		}
	}
	JOINT RightUpLeg
	{
		OFFSET -9.98441 0.00000 0.00000
		CHANNELS 3 Zrotation Xrotation Yrotation
		JOINT RightLeg
		{
			OFFSET 0.00000 -42.11790 0.00000
			CHANNELS 3 Zrotation Xrotation Yrotation
			JOINT RightFoot
			{
				OFFSET 0.00000 -45.00020 -0.00001
				CHANNELS 3 Zrotation Xrotation Yrotation
				JOINT RightForeFoot
				{
					OFFSET 0.00000 -3.74820 0.00000
					CHANNELS 3 Zrotation Xrotation Yrotation
					JOINT RightToeBase
					{
						OFFSET 0.00000 0.06325 14.43120
						CHANNELS 3 Zrotation Xrotation Yrotation
						End site
						{
							OFFSET 0.00000 0.00000 0.00000
						}
					}
				}
			}
		}
	}
	JOINT LeftUpLeg
	{
		OFFSET 9.98441 0.00000 0.00000
		CHANNELS 3 Zrotation Xrotation Yrotation
		JOINT LeftLeg
		{
			OFFSET 0.00000 -42.11800 0.00000
			CHANNELS 3 Zrotation Xrotation Yrotation
			JOINT LeftFoot
			{
				OFFSET 0.00000 -45.00070 0.00000
				CHANNELS 3 Zrotation Xrotation Yrotation
				JOINT LeftForeFoot
				{
					OFFSET 0.00000 -3.74824 0.00000
					CHANNELS 3 Zrotation Xrotation Yrotation
					JOINT LeftToeBase
					{
						OFFSET 0.00000 0.06325 14.43110
						CHANNELS 3 Zrotation Xrotation Yrotation
						End site
						{
							OFFSET 0.00000 0.00000 0.00000
						}
					}
				}
			}
		}
	}
}
MOTION
Frames: 4
Frame Time: 0.050000
-0.01915819545058841 -0.012147984871325172 -0.011020809662116555 -0.011220586228184868 0.0011795937589636064 -0.01962061126059017 -3.0544455851184793 6.543127755730653 -0.7753980588592357 -0.6859792832830475 3.190715556437471 0.412105430712295 -0.856825739641724 -0.12239167231321327 -0.6336356889902999 -0.3747716575833524 0.17656798349983524 -0.8683876592337405 -0.10562125506816629 7.3529922155436465 -0.6013135716883382 -0.04755964471576494 -2.0290384259078404 -4.66577360128591 0.28419269004157327 -16.991109440494068 -0.330019279279649 4.247941805766045 -0.11269768688590237 -11.255670170115984 70.9859538702537 9.100663754940678 5.7265462689650155 18.92800637964926 13.841383121781663 67.14505256931699 25.96416836349028 0.1188223166153007 -8.782802816151092 4.495611917882445 -0.13457004712511683 -1.6227419890422323 -0.005836670751868109 -0.028284893154534432 -56.226154925595246 0.02960662019373234 -0.01204272245714404 -56.282003998061775 -38.77227965109189 0.04518581314419565 0.017612795825282093 0.024036782215062353 0.014622114763782999 -0.009828384791101649 -0.026307987907769045 0.014701508702971872 0.03584397813655257 -36.71925298078664 0.041952102859070084 -0.027949314912603173 -0.010848668807469219 -0.01871417583071912 -0.007160271797429916 -0.010668961062646792 -0.03511321916442939 0.037504884824364704 -19.723299141142295 0.02140059030960486 -0.03934243131325919 -0.0414955158244301 0.02877674541310076 -0.00026074924136189695 0.002416010166862883 0.046921450773885126 -0.014985761811268919 24.09618692263773 0.043722862654279965 -0.027437926602909862 28.875016367902706 0.026023209805849185 0.014343583612146625 28.85525224822503 -0.010332549179178646 0.01879399159453992 -3.2037572337964857 0.04618141175128787 10.110102208803166 -68.86391466366516 18.652582555304967 -7.742936201166199 -9.449659247950928 9.69163982634553 -49.047057942859915 -17.86604908855352 5.766918161126964 -1.509407906126183 -0.5061035862180845 0.02057403966185148 -8.10099014759951 -0.01911158367799326 0.019608725538102344 44.544616757343064 -0.02139334957662688 -0.038900278389814476 44.55487215402465 12.509932408872416 0.034813222089975886 0.015010724894373967 -0.010963438574826009 0.03537462492770415 0.040847784854585505 0.030446207198455116 -0.04725638469482043 -0.024555988007552904 11.15511564242763 -0.046623534544854864 0.008067853933115479 0.04828157156744847 0.009267695797817896 0.019669238116042417 -0.0016857381612274142 0.04178924371214699 0.006225968274299694 4.72991080478645 -0.007874123785973453 -0.0028929449511424974 -0.005231298929425798 0.004682914153927034 0.0064015178964829875 0.007352895491873829 -0.02836959172494392 0.012659814048206201 -5.634186220885121 -0.025644963782434402 0.024745567060712174 -6.694732998252393 0.04891882508790637 -0.012259373936105739 -6.688604066353133 0.023772191795265737 0.0425804565663542 -0.011345281667530252 -0.0003884273701016966 -0.02734008726395161 8.039382881967626 3.513240401304001 -19.250546167013045 -0.02362137754650715 10.406924714267204 0.04835023985808848 -5.622299835014924 -15.66272306431173 3.1949753257902977 0.035132461228460345 0.04847003546778066 -0.02367753135539772 -0.014090991963347831 4.66512731921757 0.04754496347209961 12.459741452941138 -8.208646687428748 6.837352405948898 -0.00740893374010937 46.367748057982304 -0.04286285463557507 -4.3058733087095336 -14.73769447111302 -3.786206813796084 -0.008466163699685638 -0.03590977789543021 0.027872384681798434 -0.032425023283751506 -10.742631508746978 -0.02200693222497234 
-0.04485449682888837 0.021888650188180137 -0.009774607442474575 0.008925382171428695 -0.02438288029863169 -0.03019372070798078 -2.2152398867976593 5.633809122111322 -0.9065916897015689 -0.6963162599254357 3.251854190691652 0.35260253800748775 -0.8072168763750535 -0.3638998639839482 -0.41251498564650674 -0.2863245652999638 0.20289212662036013 -0.7883237996704159 -0.04325018582500522 8.400224313665639 -0.7391808350111939 0.07270884005206846 -1.931167468406081 -4.60534117450986 0.38135228713786157 -17.320957086241282 -0.3200985296408547 2.0962709291163324 0.3636449630925814 -11.773677823874525 72.65134370672403 10.172457945639131 8.363423798970446 29.906704966577045 11.373721802939722 76.04329125042132 23.38331307779332 0.010539163318563579 -9.170925186979435 4.5483906899566415 -0.13907989013697242 -1.5740957748448705 -0.04838101570561059 0.012495825713941604 -56.21991251112873 -0.03589205034861677 -0.014052003747347297 -56.262333830607695 -38.74167521924982 -0.015668089755374516 -0.011640062442953323 -0.00575309273785807 0.044836619765777005 0.007940441309579256 0.012570959433682142 -0.01861068606656735 0.025163645882070453 -36.70092410501427 -0.0031289370663234966 0.004966512724885735 0.007970955906897347 0.040291458160213775 0.0338334414270543 -0.04680625918853587 -0.005164783711685641 0.003481004797057799 -19.755008105461478 0.03563154121803635 -0.03400690124327203 0.022164348121052908 0.0077164614263393475 0.04402740574171484 -0.042260099055907295 0.004902924985885015 0.03979167304414537 24.025776130434455 0.03613307969602122 -0.045657653069307046 28.83859507709739 0.043775812410459254 -0.006189253462464052 28.86521722549769 0.0026994886442365616 0.002517751716413663 -1.1560766589851228 0.4225000675606949 10.49618350507302 -70.14210327449149 19.774020540311614 -9.011277142947574 -15.047704621332176 9.356073076147219 -52.904796022646245 -16.395579312822544 4.54077188117803 -0.6322094818706636 -0.4403133291845219 0.0655589095292884 -8.128953149346568 0.033473216138581695 0.04712164182331807 44.58303049278128 -0.04366305902950824 0.02732108239142892 44.5718052070858 12.43362844449455 0.04561303708107359 0.047125921425459294 0.013803020058283313 0.011430989029023775 0.0011166456133131632 0.03140180813951105 0.03883520201072919 0.04053409085625304 11.123241807162042 -0.03569315380089407 0.03267440590446318 -0.011360757278743826 -0.009438248867979043 0.048701387993123034 0.0035220404397581814 -0.016127209222317154 -0.00035318108040503576 4.727781521054424 -0.023318324124775934 0.027863550167479295 0.0052133530357953515 0.04257892594967472 -0.005810458994529108 0.0038806556434049884 -0.022753168051010235 -0.015495858258102445 -5.581518390120454 -0.005660894775577015 -0.041878614125063364 -6.741356901461369 0.013273512011485657 -0.008843863189498105 -6.752129843648097 0.024571125401345862 -0.016690437677733906 0.034906910016228775 -0.013703369846377702 0.019706273531939513 8.037972615647432 3.4797600553526493 -19.190740571970743 0.023653082156685202 10.363908698908169 0.04393206114487454 -5.637755156436427 -15.663885949020457 3.1575373460189775 0.00598040055333058 -0.02857374744332456 0.025038655931247444 0.03556511886949128 4.695029005757459 -0.03103801887137424 12.474440425238056 -8.239445645109521 6.901356801845506 -0.027848463772921526 46.36992970085705 -0.004297144815466215 -4.304371319946986 -14.701241219071468 -3.8060532397617015 -0.011121662805254512 -0.022391290649110888 -0.021007687280700522 0.01699920549025917 -10.788015219906393 -0.010321461025003177 
0.023070160678519497 -0.005324668853963735 0.006081801903151211 -0.03356156991926556 -0.028136082025770573 -0.008276996554474962 -1.2835768947110888 4.9039948257567705 -1.0011427551259948 -0.7261647537906795 3.333911702575832 0.4102027881610061 -0.8248702339886596 -0.6197513485401388 -0.27864748597400707 -0.24194317505350554 0.13491688965098375 -0.6654913781339581 -0.08000258698475725 9.195039746888837 -0.8043840408914968 0.031083189849731904 -1.7430049423450749 -4.459171653569482 0.48348365770785945 -17.320186854061408 -0.3265253726612657 0.10809794896629568 0.9572066895200764 -12.2473896064396 74.43616245765287 11.055474088103624 10.669968761388379 38.14077160967201 8.156627492693177 82.60237936755483 21.057955722788282 -0.11519107951793234 -9.120776039326385 4.5496804762975644 -0.08010964450137592 -1.5608935078509691 0.04041126064377457 0.0013119267719814607 -56.22360321551094 0.02743442963493766 0.002941245189057657 -56.2419193670782 -38.818481505011334 -0.027583960605208003 0.03631529738838754 0.0451999367603514 0.031083393462487726 -0.01053982651722669 -0.04710678083599704 -0.03298801239508062 -0.008284020668480904 -36.673412879982585 0.018356142582105436 0.015646972659483425 0.0082263504940055 0.04692689364642339 -0.01099877085805456 0.0317723336348885 -0.012401687897939028 0.005841502364714249 -19.78140787088582 -0.01965029459316983 0.012925728376918782 -0.03505613379578487 -0.025776458171155116 0.01747318852755445 -0.043986390253160465 -0.012154045744786329 0.0008390164523064172 24.028585472809596 0.019513311363290133 0.017754489464685455 28.84847885189922 -0.043945565746244246 0.03632675427302288 28.883067343917656 0.009785758906212676 -0.018875904615430195 0.9183054375315489 0.7569876253877055 10.835180452762419 -71.44751735408309 20.702594847096346 -10.096500917143498 -19.63471749665679 8.26707796929692 -56.11949960094205 -15.11835947881564 2.9737705552579854 0.3250751352486518 -0.5219161789840109 0.03678774682624018 -8.119260745093534 -0.015183103656514504 0.020152988179709518 44.58788269671829 -0.01611941663006842 -0.001704012666656771 44.545107798681656 12.494237705847878 0.044524310809228494 -0.020780255016116946 0.03366624106613097 -0.03398252944494981 0.033827184431334374 0.043814342654475216 -0.01904244417047008 -0.04807316769837893 11.104091584978914 -0.02383109258933135 0.03082874837137086 -0.020949593812904708 0.009606044793677989 -0.0019576559065340466 -0.007851005049290986 -0.03236569090518197 0.02009209717386487 4.811813804761347 -0.04378610565391294 0.036022506707182836 -0.01887792808116499 0.04220790610719297 0.0383056485084476 -0.0470990483740142 0.049426670499419005 0.002220958539260915 -5.562597776706901 0.028912287250586925 0.03694794274865416 -6.731599944555833 -0.03644042958611901 -0.03628433452057598 -6.754171600615406 0.04316532925999172 0.016848823333074855 0.010811730901667153 0.015182762818540745 -0.027724218580627197 8.0043504286735 3.463137102203825 -19.25255136742529 -0.02996912233188559 10.42359307037656 -0.025547340161876517 -5.621937830444426 -15.663820402970588 3.1763900771853253 -0.008495435739135497 -0.014417845115928477 -0.009600334513030358 0.026522427029355426 4.703098797938934 -0.042652230821752735 12.457775124135384 -8.253548116354562 6.924977709089202 -0.02328767634418396 46.36994657665664 0.044922043948317475 -4.301022545754795 -14.796191483223986 -3.792129980091277 -0.03807050777054841 0.02971652031586025 -0.02129609452582886 -0.006730309643191089 -10.70310383411687 -0.017343709329122648 
-0.02177918940533017 -0.03286714063903145 0.017652033848483777 0.020246922680362312 -0.04349433289963314 -0.04666303435121788 -0.47294257356296643 4.332218001169824 -1.129999081743758 -0.7447891262621394 3.451560956741596 0.41093556728166863 -0.8334862863724566 -0.7469251499298197 -0.0891063350567143 -0.2479988891513734 0.059690996223600454 -0.6422107217215597 0.03578302703091042 9.702772148018576 -0.9096868032900284 0.052640795608336774 -1.5776512639667242 -4.38086936215092 0.5655825902563906 -17.309132817387347 -0.3990166577205402 -1.6442106422950078 1.4022896575626533 -12.697100734268613 76.03485044140778 11.041509635887106 12.175183388909279 42.91671633722094 5.706250800480694 85.94886126405392 19.260876706283515 -0.1873725256697319 -8.791683870627358 4.532789925146371 -0.11547903091749503 -1.5456249778301914 -0.016205445208138058 -0.001894406225557513 -56.213700844828324 -0.01320893552826654 -0.03577380311740082 -56.20264756696251 -38.81605370899685 -0.04214395657190276 0.005471721484568529 -0.019689916767451642 0.02657699398123061 -0.005940532769938011 0.043778537226957855 0.03251993856484056 0.03195551755989706 -36.73322093844545 0.03283812066734657 -0.014021910668129665 -0.0046047927644533105 0.03537286940675031 0.031659681355660024 -0.04381469547468803 0.00476367570800212 -0.022347212092631116 -19.806512938905406 0.03367221834386052 0.02269379018015284 0.0018672552682011672 0.014648454447612069 -0.0379047366547007 0.008475960724998222 -0.0489339073838841 0.02413121825119742 24.03975956894405 -0.035851331143443806 -0.01699821803469889 28.865533887326787 0.023031405106443602 -0.03678481628591375 28.82807301124233 -0.02601537929671083 0.028230189475378174 2.4638015852276474 1.085960025955405 11.11143272149524 -72.40745035548534 21.064212551679063 -10.67991634044507 -21.50122871892505 6.400459835925092 -57.39215016019868 -14.666558494319071 1.5347852789626089 1.1401217921731628 -0.4734196071230529 0.10079323176077026 -8.149222251058701 -0.04439826785766773 0.025671327088389866 44.59693622031034 -0.03401375165549864 0.029518677282995166 44.52325769630218 12.425874333438461 -0.010657603839988173 0.029185032556992258 0.03693837569228114 -0.008300088715768088 -0.01509302159145169 -0.010470654028046191 -0.009826442652983837 -0.037997459525135696 11.147206080418051 0.019974958331991713 0.011447907309891267 0.012097137900030423 0.010682609891129662 0.017261988705084424 0.001155703510301137 -0.015338966785308909 -0.024682325708270628 4.7603352806804935 -0.010140469553322005 0.036751719523638794 -0.0042504286813637325 0.004094654492367995 -0.004665358838361705 -0.00856934199291604 0.010277394472457698 0.00546255977555804 -5.575645345013306 0.01688749001383374 0.007386727816032432 -6.706904793678883 -0.007993302742654343 0.03818304041741252 -6.721553965997413 0.039067507363933066 -0.020160739268400618 -0.042059167250009494 0.022453616211642134 0.03685046273186245 8.021757842586599 3.4723593141470275 -19.22291220616524 -0.038530592729289354 10.384232095771875 0.01141330686242175 -5.620230798698876 -15.634755898242616 3.215282248941611 -0.013174716613249792 -0.026526420471169373 -0.014481389962798037 -0.04197509879333201 4.692598794375827 0.048511588506783915 12.424048736197319 -8.242885166034236 6.866615382350132 -0.024423737754390572 46.335337565347466 -0.007101164307149209 -4.326072982775078 -14.790891389414359 -3.794270000630731 -0.0015572318545905729 -0.013309849464230495 -0.014145256663541585 0.030795498801159196 -10.727099179496417 0.015694826474779728 
